<?xml version="1.0" encoding="UTF-8"?><!DOCTYPE svg PUBLIC "-//W3C//DTD SVG 1.1//EN" "http://www.w3.org/Graphics/SVG/1.1/DTD/svg11.dtd"><svg xmlns="http://www.w3.org/2000/svg"><defs><style>.cls-1{fill:#414042;opacity:.35}</style></defs><symbol id="left-arrow" viewBox="0 0 492 492"><path d="M198.608 246.104L382.664 62.04c5.068-5.056 7.856-11.816 7.856-19.024 0-7.212-2.788-13.968-7.856-19.032l-16.128-16.12C361.476 2.792 354.712 0 347.504 0s-13.964 2.792-19.028 7.864L109.328 227.008c-5.084 5.08-7.868 11.868-7.848 19.084-.02 7.248 2.76 14.028 7.848 19.112l218.944 218.932c5.064 5.072 11.82 7.864 19.032 7.864 7.208 0 13.964-2.792 19.032-7.864l16.124-16.12c10.492-10.492 10.492-27.572 0-38.06L198.608 246.104z"/></symbol><symbol id="logo" viewBox="0 0 450.37 372.63"><title>15 08 Villa Reale Marca-01 (1)</title><path d="M227.9 213.15l-91-91 91-91 91 91zm-76.89-91l76.89 76.89 76.89-76.89-76.89-76.92z" fill="#f1e9cf"/><ellipse cx="227.9" cy="192.46" rx="25.75" ry="52.29" fill="#80b0ae"/><path d="M122.3 61.03a66 66 0 0 0 89.94 52.06 66 66 0 0 0-89.94-52.06z" fill="#d1c557"/><path d="M212.26 131.22a66 66 0 0 0-90 52.28 66 66 0 0 0 90-52.28zM333.5 183.27a66 66 0 0 0-89.94-52.06 66 66 0 0 0 89.94 52.06z" fill="#b5d5d7"/><ellipse cx="304.77" cy="101.36" rx="52.29" ry="25.75" transform="rotate(-29.88 270.14 124.05)" fill="#d1c557"/><path d="M253.65 51.84A65.84 65.84 0 0 0 228.47 0a66 66 0 0 0-.5 104.07 65.85 65.85 0 0 0 25.68-52.23z" fill="#b3a643"/><path d="M212.26 131.22a65.77 65.77 0 0 1 15.64 8.95 65.93 65.93 0 0 1 15.66-9 65.67 65.67 0 0 1 0-18 66 66 0 0 1-15.55-9.1 65.86 65.86 0 0 1-15.73 9 65.92 65.92 0 0 1 0 18.13z" fill="#c74f23"/><path d="M161.45 368.65h-4.47l-.89 2.17h-1.63l4-9.56h1.41l4 9.56h-1.63zm-.55-1.32l-1.23-3c-.21-.52-.44-1.24-.45-1.24s-.24.72-.45 1.24l-1.23 3zM181.57 370.96a5 5 0 1 1 1.52 0v1.67h-1.52zm4.18-4.92a3.4 3.4 0 1 0-3.4 3.49 3.3 3.3 0 0 0 3.4-3.49zM209.52 361.26v5.5c0 2.77-1.51 4.25-4 4.25s-4-1.48-4-4.25v-5.5h1.52v5.5c0 1.93.85 2.86 2.5 2.86s2.53-.93 2.53-2.86v-5.5zM227.88 370.82v-9.56h1.52v9.56zM253.66 370.82l-2-3.43a1.42 1.42 0 0 1-.3 0h-1.61v3.41h-1.52v-9.54h3.13c2.3 0 3.68 1.21 3.68 3.1a2.78 2.78 0 0 1-1.92 2.76l2.27 3.7zm-2.15-4.75a1.7 1.7 0 0 0 1.93-1.71c0-1-.69-1.68-1.93-1.68h-1.79v3.39zM277.16 368.65h-4.47l-.89 2.17h-1.62l4-9.56h1.41l4 9.56h-1.5zm-.55-1.32l-1.23-3c-.2-.52-.43-1.24-.45-1.24s-.25.72-.45 1.24l-1.23 3zM302.01 362.66l-5.08 6c-.41.45-.78.81-.78.82s.59 0 1.33 0H302v1.42h-7.91v-1.4l5.2-6c.3-.35.78-.76.78-.77s-.66 0-1.33 0h-4.51v-1.47h7.75z" fill="#727176"/><path fill="#c74f23" d="M142.74 335.4h42.75v2.27h-42.75z"/><path fill="#80b0ae" d="M185.49 335.4h42.75v2.27h-42.75z"/><path fill="#d8cb85" d="M270.99 335.4h42.75v2.27h-42.75z"/><path fill="#003a43" d="M228.24 335.4h42.75v2.27h-42.75zM9.14 270.11c-1.66-4-2.88-4.75-5.47-5.47a11 11 0 0 0-2.81-.29c-.65 0-.86-.21-.86-.65s.79-.64 1.87-.64c3.81 0 7.91.21 10.43.21 1.8 0 5.26-.21 8.86-.21.86 0 1.65.14 1.65.64s-.43.65-1.08.65a5 5 0 0 0-2.8.51 1.7 1.7 0 0 0-.72 1.51 21.3 21.3 0 0 0 1.65 5.54l12.38 32.68h.29c3.09-7.92 12.45-31.1 14.18-35.85a8.79 8.79 0 0 0 .65-2.66 1.38 1.38 0 0 0-.94-1.37 9.49 9.49 0 0 0-2.88-.36c-.65 0-1.22-.07-1.22-.57s.65-.72 2-.72c3.6 0 6.62.21 7.56.21 1.22 0 4.61-.21 6.77-.21.93 0 1.51.14 1.51.64s-.43.65-1.15.65a6.21 6.21 0 0 0-3.53.87c-.94.64-2 1.87-4 6.47-2.81 6.77-4.75 10.66-8.64 19.51-4.6 10.51-8 18.35-9.57 21.95-1.87 4.18-2.3 5.33-3.31 5.33s-1.37-1-2.74-4.39zM64.99 288.9c0-9.29 0-11-.07-13-.14-2.09-.79-2.81-2.16-3.24a8.29 8.29 0 0 0-2.3-.29c-.65 0-1-.14-1-.72 0-.36.51-.5 1.51-.5 2.38 0 6.7.14 8.5.14 1.58 0 5.68-.14 8.13-.14.79 0 1.3.14 1.3.5 0 .58-.37.72-1 .72a9 9 0 0 0-1.87.22c-1.73.29-2.24 1.15-2.38 3.31-.14 1.94-.14 3.67-.14 13v10.79c0 5.9 0 10.8.28 13.39.22 1.66.65 2.59 2.52 2.88a24.5 24.5 0 0 0 3.24.21c.72 0 1 .36 1 .65s-.5.65-1.22.65c-4.18 0-8.5-.22-10.22-.22-1.44 0-5.76.22-8.28.22-.79 0-1.22-.22-1.22-.65s.21-.65 1-.65a9.5 9.5 0 0 0 2.23-.21c1.3-.29 1.66-1.15 1.88-2.95.28-2.52.28-7.42.28-13.32zM102.78 299.69c0 7.85 0 11.73 1.37 12.89 1.08.93 3.53 1.29 8.42 1.29 3.38 0 5.83-.07 7.41-1.73a7.35 7.35 0 0 0 1.59-3.67c.07-.57.21-.93.72-.93s.57.65.57 1.37a47.1 47.1 0 0 1-.93 7.05c-.43 1.37-.72 1.66-4 1.66-4.54 0-8.21-.08-11.37-.22s-5.83-.15-8.43-.15c-.72 0-2.08.08-3.59.08s-3.1.14-4.4.14c-.79 0-1.22-.22-1.22-.65s.22-.65 1-.65a9.5 9.5 0 0 0 2.23-.21c1.3-.29 1.66-1.44 1.87-3.24.29-2.59.29-7.41.29-13V288.9c0-9.29 0-11-.07-13-.15-2.09-.72-2.73-2.74-3.31a8.54 8.54 0 0 0-2.08-.22c-.72 0-1.08-.21-1.08-.64s.43-.58 1.36-.58c3 0 7 .14 8.71.14 1.51 0 6.7-.14 9.14-.14.94 0 1.37.14 1.37.58s-.36.64-1.15.64a14.49 14.49 0 0 0-2.45.22c-1.73.29-2.23 1.15-2.37 3.31-.15 1.94-.15 3.67-.15 13zM142.51 299.69c0 7.85 0 11.73 1.37 12.89 1.08.93 3.53 1.29 8.42 1.29 3.39 0 5.83-.07 7.42-1.73a7.33 7.33 0 0 0 1.58-3.67c.07-.57.22-.93.72-.93s.58.65.58 1.37a47.33 47.33 0 0 1-.94 7.05c-.43 1.37-.72 1.66-4 1.66-4.53 0-8.21-.08-11.37-.22s-5.83-.15-8.42-.15c-.72 0-2.09.08-3.6.08s-3.1.14-4.39.14c-.79 0-1.23-.22-1.23-.65s.22-.65 1-.65a9.5 9.5 0 0 0 2.23-.21c1.3-.29 1.66-1.44 1.87-3.24.29-2.59.29-7.41.29-13V288.9c0-9.29 0-11-.07-13-.14-2.09-.72-2.73-2.74-3.31a8.54 8.54 0 0 0-2.08-.22c-.72 0-1.08-.21-1.08-.64s.43-.58 1.36-.58c3 0 7 .14 8.71.14 1.52 0 6.7-.14 9.15-.14.93 0 1.36.14 1.36.58s-.36.64-1.15.64a14.49 14.49 0 0 0-2.45.22c-1.72.29-2.23 1.15-2.37 3.31-.15 1.94-.15 3.67-.15 13z"/><path d="M177.93 302c-.36 0-.43.07-.58.43l-3.38 8.27a11.14 11.14 0 0 0-.94 3.75c0 1.08.58 1.72 2.52 1.72h.94c.79 0 .93.29.93.65s-.36.65-1 .65c-2.09 0-5-.22-7.06-.22-.65 0-4 .22-7.34.22-.79 0-1.15-.14-1.15-.65s.21-.65.72-.65 1.29-.07 1.87-.07c2.88-.43 4-2.3 5.25-5.4l16.56-38.21c.72-1.73 1.22-2.45 1.87-2.45.94 0 1.22.57 1.87 1.94 1.51 3.39 12.09 28.14 16.12 37.43 2.45 5.54 4.25 6.33 5.4 6.55a15.78 15.78 0 0 0 2.38.21c.57 0 .86.22.86.65s-.36.65-2.73.65-6.84 0-12.17-.14c-1.15-.08-1.87-.08-1.87-.51s.15-.57.79-.65a1 1 0 0 0 .58-1.36l-4.9-12.38a.59.59 0 0 0-.64-.43zm13.53-3.39c.29 0 .36-.14.29-.36l-6-15.33c-.07-.21-.14-.57-.29-.57s-.28.36-.36.57l-6.11 15.26c-.15.29 0 .43.21.43zM243.71 283.93c0-10.94 0-13-.14-15.26-.14-2.45-.72-3.6-3.09-4.1a14.32 14.32 0 0 0-2.81-.22c-.79 0-1.23-.14-1.23-.65s.51-.64 1.59-.64c3.81 0 8.35.21 9.86.21 2.45 0 7.92-.21 10.15-.21 4.53 0 9.36.43 13.24 3.09a12.47 12.47 0 0 1 4.9 9.86c0 5.33-2.24 10.22-9.5 16.13 6.4 8.06 11.37 14.46 15.61 18.93 4 4.17 7 4.67 8.06 4.89a11.74 11.74 0 0 0 2 .21c.58 0 .86.22.86.58 0 .58-.5.72-1.36.72h-6.84c-4 0-5.83-.36-7.7-1.37-3.1-1.65-5.83-5-9.86-10.58-2.88-4-6.19-8.85-7.13-9.93a1.5 1.5 0 0 0-1.29-.5l-6.27-.15c-.36 0-.57.15-.57.58v1c0 6.69 0 12.38.36 15.4.21 2.09.65 3.67 2.8 4a34.16 34.16 0 0 0 3.53.28c.58 0 .87.22.87.58s-.51.72-1.44.72c-4.18 0-9.51-.22-10.58-.22-1.37 0-5.91.22-8.79.22-.93 0-1.44-.22-1.44-.72s.29-.58 1.16-.58a12.06 12.06 0 0 0 2.59-.28c1.44-.29 1.8-1.87 2.08-4 .36-3 .36-8.71.36-15.33zm8.5 5.69c0 .79.14 1.08.65 1.29a18.75 18.75 0 0 0 5.47.72c2.87 0 3.81-.29 5.11-1.22 2.16-1.59 4.24-4.9 4.24-10.8 0-10.22-6.76-13.17-11-13.17a15.51 15.51 0 0 0-3.81.29c-.51.14-.65.43-.65 1z" fill="#003a43"/><path d="M296.62 288.9c0-9.29 0-11-.07-13-.15-2.09-.72-2.73-2.74-3.31a11.84 11.84 0 0 0-2.52-.22c-.64 0-1.08-.21-1.08-.64s.51-.58 1.44-.58c3.31 0 7.34.14 9.14.14 2 0 16.05.08 17.28 0a24 24 0 0 0 2.66-.36 7.49 7.49 0 0 1 1-.28c.36 0 .43.28.43.57a26.73 26.73 0 0 0-.5 4c-.08.65-.22 3.31-.36 4-.08.29-.22 1-.72 1s-.51-.29-.51-.79a5.74 5.74 0 0 0-.43-2.23c-.5-1.08-1-2-4.17-2.24-1.08-.14-8.64-.28-9.94-.28-.28 0-.43.21-.43.57v15.12c0 .36.07.65.43.65 1.44 0 9.65 0 11.09-.15a5 5 0 0 0 3-.93c.5-.44.72-.8 1-.8s.5.29.5.65-.14 1.37-.5 4.46c-.14 1.23-.29 3.68-.29 4.11s-.07 1.36-.65 1.36-.57-.21-.57-.5c-.07-.65-.07-1.44-.22-2.23-.36-1.22-1.15-2.16-3.53-2.38-1.15-.14-8.34-.28-9.93-.28-.29 0-.36.28-.36.64v4.9c0 2.09-.07 7.27 0 9.07.15 4.17 2.09 5.11 8.57 5.11a17.07 17.07 0 0 0 6-.79c1.58-.72 2.3-2 2.74-4.54.14-.65.28-.93.72-.93s.57.79.57 1.44a41.37 41.37 0 0 1-.86 6.76c-.43 1.59-1 1.59-3.38 1.59-4.75 0-8.57-.08-11.67-.22s-5.46-.15-7.34-.15c-.72 0-2.08.08-3.6.08s-3.09.14-4.39.14c-.79 0-1.22-.22-1.22-.65s.22-.65 1-.65a9.62 9.62 0 0 0 2.23-.21c1.3-.29 1.65-1.44 1.87-3.24.29-2.59.29-7.41.29-13zM340.81 302c-.36 0-.43.07-.57.43l-3.39 8.27a11.32 11.32 0 0 0-.93 3.75c0 1.08.58 1.72 2.52 1.72h.93c.8 0 .94.29.94.65s-.36.65-1 .65c-2.08 0-5-.22-7-.22-.65 0-4 .22-7.34.22-.79 0-1.15-.14-1.15-.65s.21-.65.72-.65 1.29-.07 1.87-.07c2.88-.43 4-2.3 5.25-5.4l16.56-38.21c.72-1.73 1.22-2.45 1.87-2.45.93 0 1.22.57 1.87 1.94 1.51 3.39 12.09 28.14 16.12 37.43 2.45 5.54 4.25 6.33 5.4 6.55a15.55 15.55 0 0 0 2.37.21c.58 0 .87.22.87.65s-.36.65-2.74.65c-2.23 0-6.83 0-12.16-.14-1.15-.08-1.87-.08-1.87-.51s.14-.57.79-.65a1 1 0 0 0 .58-1.36l-4.9-12.38a.6.6 0 0 0-.65-.43zm13.54-3.39c.28 0 .36-.14.28-.36l-6-15.33c-.07-.21-.14-.57-.29-.57s-.29.36-.36.57l-6.12 15.26c-.14.29 0 .43.22.43zM392.09 299.69c0 7.85 0 11.73 1.37 12.89 1.08.93 3.53 1.29 8.42 1.29 3.38 0 5.83-.07 7.41-1.73a7.35 7.35 0 0 0 1.59-3.67c.07-.57.21-.93.72-.93s.57.65.57 1.37a47.1 47.1 0 0 1-.93 7.05c-.43 1.37-.72 1.66-4 1.66-4.54 0-8.21-.08-11.37-.22s-5.83-.15-8.43-.15c-.72 0-2.08.08-3.6.08s-3.09.14-4.39.14c-.79 0-1.22-.22-1.22-.65s.22-.65 1-.65a9.62 9.62 0 0 0 2.23-.21c1.3-.29 1.65-1.44 1.87-3.24.29-2.59.29-7.41.29-13V288.9c0-9.29 0-11-.07-13-.15-2.09-.72-2.73-2.74-3.31a8.57 8.57 0 0 0-2.09-.22c-.72 0-1.07-.21-1.07-.64s.43-.58 1.36-.58c2.95 0 7 .14 8.71.14 1.51 0 6.7-.14 9.14-.14.94 0 1.37.14 1.37.58s-.36.64-1.15.64a14.49 14.49 0 0 0-2.45.22c-1.73.29-2.23 1.15-2.37 3.31-.15 1.94-.15 3.67-.15 13zM423.3 288.9c0-9.29 0-11-.07-13-.14-2.09-.72-2.73-2.74-3.31a11.81 11.81 0 0 0-2.51-.22c-.65 0-1.08-.21-1.08-.64s.5-.58 1.44-.58c3.31 0 7.34.14 9.14.14 2 0 16.05.08 17.27 0a24 24 0 0 0 2.66-.36 7.49 7.49 0 0 1 1-.28c.36 0 .43.28.43.57a26.73 26.73 0 0 0-.5 4c-.07.65-.22 3.31-.36 4-.07.29-.22 1-.72 1s-.5-.29-.5-.79a5.78 5.78 0 0 0-.44-2.23c-.5-1.08-1-2-4.17-2.24-1.08-.14-8.64-.28-9.93-.28-.29 0-.44.21-.44.57v15.12c0 .36.08.65.44.65 1.44 0 9.64 0 11.08-.15a5 5 0 0 0 3-.93c.51-.44.72-.8 1-.8a.59.59 0 0 1 .51.65c0 .36-.15 1.37-.51 4.46-.14 1.23-.29 3.68-.29 4.11s-.07 1.36-.64 1.36-.58-.21-.58-.5c-.07-.65-.07-1.44-.22-2.23-.36-1.22-1.15-2.16-3.52-2.38-1.15-.14-8.35-.28-9.94-.28-.28 0-.36.28-.36.64v4.9c0 2.09-.07 7.27 0 9.07.15 4.17 2.09 5.11 8.57 5.11a17 17 0 0 0 6-.79c1.59-.72 2.31-2 2.74-4.54.14-.65.29-.93.72-.93s.57.79.57 1.44a41.37 41.37 0 0 1-.86 6.76c-.43 1.59-1 1.59-3.38 1.59-4.75 0-8.57-.08-11.66-.22s-5.47-.15-7.34-.15c-.72 0-2.09.08-3.6.08s-3.1.14-4.39.14c-.79 0-1.23-.22-1.23-.65s.22-.65 1-.65a9.5 9.5 0 0 0 2.23-.21c1.3-.29 1.66-1.44 1.87-3.24.29-2.59.29-7.41.29-13z" fill="#003a43"/></symbol><symbol id="phone" viewBox="0 0 480.56 480.56"><path d="M365.354 317.9c-15.7-15.5-35.3-15.5-50.9 0-11.9 11.8-23.8 23.6-35.5 35.6-3.2 3.3-5.9 4-9.8 1.8-7.7-4.2-15.9-7.6-23.3-12.2-34.5-21.7-63.4-49.6-89-81-12.7-15.6-24-32.3-31.9-51.1-1.6-3.8-1.3-6.3 1.8-9.4 11.9-11.5 23.5-23.3 35.2-35.1 16.3-16.4 16.3-35.6-.1-52.1-9.3-9.4-18.6-18.6-27.9-28-9.6-9.6-19.1-19.3-28.8-28.8-15.7-15.3-35.3-15.3-50.9.1-12 11.8-23.5 23.9-35.7 35.5-11.3 10.7-17 23.8-18.2 39.1-1.9 24.9 4.2 48.4 12.8 71.3 17.6 47.4 44.4 89.5 76.9 128.1 43.9 52.2 96.3 93.5 157.6 123.3 27.6 13.4 56.2 23.7 87.3 25.4 21.4 1.2 40-4.2 54.9-20.9 10.2-11.4 21.7-21.8 32.5-32.7 16-16.2 16.1-35.8.2-51.8-19-19.1-38.1-38.1-57.2-57.1zM346.254 238.2l36.9-6.3c-5.8-33.9-21.8-64.6-46.1-89-25.7-25.7-58.2-41.9-94-46.9l-5.2 37.1c27.7 3.9 52.9 16.4 72.8 36.3 18.8 18.8 31.1 42.6 35.6 68.8zM403.954 77.8c-42.6-42.6-96.5-69.5-156-77.8l-5.2 37.1c51.4 7.2 98 30.5 134.8 67.2 34.9 34.9 57.8 79 66.1 127.5l36.9-6.3c-9.7-56.2-36.2-107.2-76.6-147.7z"/></symbol><symbol id="pin" viewBox="0 0 512 512"><path d="M256 0C161.896 0 85.333 76.563 85.333 170.667c0 28.25 7.063 56.26 20.49 81.104L246.667 506.5c1.875 3.396 5.448 5.5 9.333 5.5s7.458-2.104 9.333-5.5l140.896-254.813c13.375-24.76 20.438-52.771 20.438-81.021C426.667 76.563 350.104 0 256 0zm0 256c-47.052 0-85.333-38.281-85.333-85.333S208.948 85.334 256 85.334s85.333 38.281 85.333 85.333S303.052 256 256 256z"/></symbol><symbol id="plant" viewBox="0 0 352.385 303.695"><path id="Path_2" data-name="Path 2" class="cls-1" d="M48.1 15.7c-3.2-4.1-4-9.1-5.8-13.7A1.326 1.326 0 0 1 44.2.3C47.9 2.4 51.5 4.6 55 7c1 .6 1.5 1.9 2.3 2.9H57a26.342 26.342 0 0 0-10.1-5.7 6.032 6.032 0 0 0 .8 1.3c4.3 5.2 8.7 10.4 13 15.5a33.573 33.573 0 0 0 2.4 2.9A32.7 32.7 0 0 1 70 34.2c2.9 6.7 6 13.3 8.7 20.1 1.9 4.6 3.2 9.5 4.8 14.3a12.387 12.387 0 0 1-1.8-2.2c-3.4-8.7-6.6-17.4-10.1-26.1-1.6-4.1-3.4-8.1-6.5-11.4-2.9-3.1-5.4-6.6-8-9.9-2.7-3.4-5.5-6.7-8.2-10-.2.2-.4.3-.6.5 11.1 20.5 21.9 41.2 34.5 61 .2-.8.4-1.3.6-1.9a18.212 18.212 0 0 1 1.5 2.7c.8 2.2 1.4 4.5 2.1 6.7.3-.1.6-.1 1-.2-.3-3.7-.5-7.4-.8-11-.2-2.1-.5-4.1-.7-6.2l-.1.1c.7 2 1.7 3.9 2 5.9.5 4.5.7 9 1 13.9a20.068 20.068 0 0 0 .7-2.9 194.7 194.7 0 0 0 2.1-20.2 83.914 83.914 0 0 1 2.3-14.9c1.4-6 2.9-12.1 6.2-17.4 2.8-4.5 6-8.6 9-13 1.8.7 1.9 1.9 2 3.2a80.657 80.657 0 0 1-4.9 38.6 73.726 73.726 0 0 1-4.4 10.4c-3.1 5.3-6.4 10.5-10 15.5-2.3 3.3-3.1 6.5-1.9 10.3.5 1.7 1.1 3.3 1.9 5.9 1.4-3.6 2.4-6.4 3.5-9.3a99.877 99.877 0 0 1 11.2-21.8c3.1-4.5 6-9.3 9.1-13.8a17.334 17.334 0 0 1 3.9-4.6c4.9-4 9.9-7.8 14.9-11.6.6-.5 1.6-.4 3-.8a48.369 48.369 0 0 1-1.1 5.5c-1.8 5.1-3.8 10.1-5.7 15.2a93.514 93.514 0 0 1-9.5 19.3 67.611 67.611 0 0 1-20.2 20.7c-2.4 1.6-4.8 3.3-7 5.1a3.442 3.442 0 0 0-1.3 2.5 114.873 114.873 0 0 0 2.7 16.8c1.2-1.9 2.4-3.9 3.6-5.8 2.3-3.5 4.3-7.2 6.9-10.3 6.6-7.8 13.4-15.3 20.3-22.9a49.6 49.6 0 0 1 16-11.9c3.5-1.7 6.9-3.6 10.4-5.3.7-.4 1.6-.3 3-.5a24.054 24.054 0 0 1-.2 3.1 94.006 94.006 0 0 1-7.2 16.2c-4.7 8.7-11.4 15.8-18.3 22.5-7.2 7-15.5 13-25 16.7-1.9.7-3.5 2.1-5.2 3-1.3.7-2.6 1.1-4.5 1.9.3 7.1.6 14.7.9 22.2.2.1.5.1.7.2a6.1 6.1 0 0 0 1.2-1.6c2-5.5 5.7-9.8 9.7-13.8 5.6-5.6 11.2-11.3 17.3-16.4 8.6-7.3 18-13.3 29-16.5 2.6-.8 5.2-1.6 8.6-2.7-.3 1.7-.3 2.7-.7 3.4-4 6.4-7.7 13-12.3 19-3.3 4.4-7.8 7.8-11.8 11.7-4.7 4.7-10.7 7.5-16.2 11a75.122 75.122 0 0 1-9.4 5.6c-4.6 2.1-9.4 3.6-14.1 5.3-.6.2-1.1.4-1.8.7-.5 7.4-1 14.7-1.5 22.8 2.2-2.3 3.9-4.2 5.7-5.9 6.7-6.5 13.3-13.1 21.6-17.6 6.7-3.6 13.1-7.6 19.8-11a64.366 64.366 0 0 1 23.9-6.8 10.868 10.868 0 0 1 1.8.1c.8 1.9-.3 3.1-1.3 4.2-6.3 6.3-11.3 14-19.4 18.4-1.4.8-2.5 2.2-3.8 3.1-3.6 2.3-7.3 4.5-11 6.6-2.5 1.4-5.3 2.3-7.9 3.7-7.8 4.3-16.3 6.8-24.8 9.1l-3.3.9a3.43 3.43 0 0 0-2.5 3c-1.4 9.1-2.8 18.2-4.3 28.1 2.6-1.7 4.7-3 6.7-4.4 7.6-5.7 15.9-10.3 24.1-15a109.351 109.351 0 0 1 22.9-9.7 89.751 89.751 0 0 1 21.2-3.7 24.625 24.625 0 0 1 2.6.2c.7 1.8-.3 2.9-1.3 3.8-4 3.6-8 7.3-12.1 10.8-10.3 8.6-21.3 16.3-34.7 19.4-6.2 1.4-12.7 2.2-19 3-3.7.5-7.4.6-10.9.8-2.3 9.7-4.5 18.9-6.8 28.7 22.3-20.2 48.3-28.4 77.8-26.6.8 2.4-.6 3.4-1.9 4.3-5.6 3.7-11 7.6-16.9 10.7a205.364 205.364 0 0 1-21.4 9.6 113.016 113.016 0 0 1-25.7 6c-4.7.6-9.4 1.6-14.7 2.5-.1 1.3-.3 2.8-.4 4.3 0 .3.1.8-.1.9-4.3 4.2-4.5 10.5-7.6 15.3a11.6 11.6 0 0 0-1.1 2.7c2-.3 3.3-1.6 4.6-2.6 4.6-3.7 9.9-5.9 15.5-7.8 7.3-2.4 14.6-5 22-6.9 6.7-1.7 13.6-2.5 20.5-3.7 6.9-1.1 13.8.3 20.7.7 2.3.1 4.6.9 7 1.3-.3 1.9-1.4 2.5-2.7 3.1-3.5 1.6-7 3.5-10.5 5-6.7 2.9-13 6.6-20.1 8.5-7.7 2-15.2 4.4-22.9 6.4a68.049 68.049 0 0 1-10.1 1.3c-7.8.7-15.6 1.2-23.4-.2a16.044 16.044 0 0 0-3.1 0c-3.2 10.5-10.3 18.8-14.9 28.4-.1.2-.6.2-1.8.5 4.7-7.9 8.9-15.2 13.1-22.3-1.4-3-4.2-3.3-6.2-4.6-3.8-2.5-7.7-4.7-11.5-7.2-8.6-5.6-15.7-12.9-22.8-20.2-1.9-2-4-3.8-6-5.8-7-6.7-11.8-15-16.7-23.2-.8-1.3-1-2.5-.3-3.5 31.7 9 51.8 30.6 64.8 59.9.4-.2.7-.2.8-.4l8.1-18.6c.6-1.4 1.2-2.8 1.7-4.2 1-2.5.5-3.6-2.3-4.5a35.023 35.023 0 0 1-10.2-4.7c-2.8-1.9-5.5-4-8.1-6.1-3.5-2.8-7.2-5.5-10.5-8.6a101.024 101.024 0 0 1-7.6-8.4q-6-7.5-11.7-15.3c-4.3-5.9-6.7-12.7-8.4-19.7-.3-1.3-.8-2.7-1.1-4s-.6-2.6-.9-4.1c3.3-.1 5.2 1.8 7.1 3.1 13.9 9.1 25.2 20.9 35.4 33.9a163.2 163.2 0 0 1 13.1 18.9c1.9 3.3 3.5 6.7 5.2 10.1.5.9.9 1.7 1.7 3.2 5.1-12.2 7.4-24.6 10-37-2.8-.5-5.3-1.4-7.9-1.5-4.7-.2-8.6-2.6-12.6-4.6a87.859 87.859 0 0 1-8.3-5.1c-2.5-1.6-5.1-3.1-7.6-4.9-7.7-5.5-13.8-12.5-19.5-19.9-4.1-5.3-7.9-10.8-11.8-16.2-1.3-1.8-2.7-3.7-2.5-6.4 2-.4 3.7.5 5.4 1 9.8 2.8 18 8.2 26.1 14.2 8.3 6.1 17.2 11.6 24.6 18.9 5.2 5.1 9.9 10.7 15 16.3 1.5-8.3 3.6-16.7 3.9-25.6-3.2-.6-6.3-1.5-9.5-1.8a23.889 23.889 0 0 1-8.7-2.3c-3.1-1.5-6.2-2.7-9.2-4.3-4.1-2.2-8.2-4.5-12.1-6.9a42.383 42.383 0 0 1-5.2-4.3c-3.5-3.3-7.4-5.9-10.5-9.8-3.8-4.7-8-9.1-12-13.5-2.7-3-2.8-3.1-3.1-7.1 4.1 1.3 8.1 2.9 12.3 4 10.4 2.9 19.3 8.4 28.3 14 10 6.2 18.3 14.1 26.3 22.6 1.3 1.4 2.4 3.1 3.9 5.1 2.3-9.7 1.8-19.1 2.2-28.6-4.8-.9-9.4-1.7-13.9-2.8a70.237 70.237 0 0 1-8.1-2.8c-3.6-1.5-7.1-3-10.6-4.8-3.5-1.9-6.9-4.1-10.3-6.2-1-.6-1.9-1.2-2.8-1.8-1.3-.9-2.7-1.9-3.9-2.9-2.7-2.4-5.6-4.7-8.1-7.3-4.4-4.6-8.7-9.4-13-14.2-.7-.7-1.3-1.5-2.1-2.4 1.5-1.3 2.4-1.9 4-1.1a15.954 15.954 0 0 0 4.8 1.1 60.322 60.322 0 0 1 19.3 6.5c6.3 3.4 12.6 6.8 18.7 10.6a93.151 93.151 0 0 1 23.6 21.1c.4.5.8.9 1.8 2.1.5-8.3-.4-15.6-.6-22.7-3.3-.7-6.3-1.2-9.2-1.8a63.848 63.848 0 0 1-20.1-8.1c-2.1-1.3-4.3-2.5-6.5-3.7-5.9-3.1-10.9-7.7-15.9-12-5.3-4.6-9.6-10.3-14.3-15.6a24.516 24.516 0 0 1-2.6-3.7 21.581 21.581 0 0 1-1-2.5c.8-.2 1.3-.5 1.7-.4 7.4 1.4 15.1 2 21.9 5.5 5.5 2.8 10.8 5.9 16 9.2A135.129 135.129 0 0 1 78.7 100c5 4.3 9.5 9.3 14.5 14.2a29.463 29.463 0 0 0-.1-4.2c-.7-4.3-1.4-8.6-2.2-12.9-.3-1.5-1.3-1.9-2.7-2.2a63.538 63.538 0 0 1-32.8-16.6c-2.8-2.7-6-5-8.9-7.5-7.6-6.5-13.6-14.4-19.8-22.2-.3-.4-.4-.9-.8-1.6a4.622 4.622 0 0 1 2.2-.3 56.535 56.535 0 0 1 8 2.4 173.862 173.862 0 0 1 26.4 14.6 75.085 75.085 0 0 1 15 13.1c3.6 3.8 7.4 7.6 11.3 11.6-.4-2.3-.7-4.3-2.4-6.2a166.55 166.55 0 0 1-13.8-18.4c-.9-1.4-2-2.6-3-3.9-3.9-5.4-6.9-11.4-10-17.3-1.6-3-3.2-6-4.6-9.1-2.2-4.8-4.2-9.7-6.2-14.6a17.506 17.506 0 0 1-.6-3.3 6.73 6.73 0 0 1 1.1 1.4 182.278 182.278 0 0 0 10.6 23.4c3.4 6 6 12.5 10.2 18 3.8 5 7.3 10.2 10.9 15.3.4.5.9.9 1.3 1.4.2-.1.4-.3.6-.4-1.4-3-2.6-6.1-4.3-9-3.7-6.4-7.8-12.6-11.5-19.1-4.3-7.6-8.4-15.5-12.6-23.2-1.7-3.2-3.7-6.3-5.6-9.6-.3.8-.6 1.3-.8 1.9zm-6.4 126.4c-1-.7-2-1.5-3-2.2a5.937 5.937 0 0 1-.4.8c1.2.4 2.4.9 3.6 1.3 1.9 1.5 3.7 3 5.6 4.4 6.1 4.4 12.3 8.7 18.3 13.2 7.5 5.7 14.9 11.5 22.4 17.2.6.4 1.2.7 2.5 1.4a13.11 13.11 0 0 0-1-1.9c-2.7-2.9-5.3-6-8.3-8.7a162.708 162.708 0 0 0-13.5-11.4 123.81 123.81 0 0 0-14.7-9.1c-3.8-1.9-7.2-4.6-11.5-5zM30.5 79.8c6.2 4.7 12.5 9.3 18.7 14 8.8 6.6 18.3 12 27.7 17.5 3.9 2.3 8.1 4 12.5 6.1-3.1-7.1-51.8-38.3-59.8-39.3.4.6.6 1.2.9 1.7-.1.9-1.1 1.5 0 2.6 1.9 2 3.4 4.3 5.4 6.3 3.6 3.6 7.4 7.1 11.2 10.5a57.98 57.98 0 0 0 8.3 6.5c2.8 1.7 5.5 3.7 8.7 5 4.5 1.7 8.6 4.6 13.1 6.5a35.406 35.406 0 0 0 13 2.6 31.14 31.14 0 0 0-2.7-1.8c-4.3-2.1-8.7-3.9-12.8-6.4-8.3-4.9-16.6-10-24.6-15.3-6.1-4.1-11.9-8.9-17.7-13.4-.8-.8-1.2-2.1-1.9-3.1zm-11 112.6a6.726 6.726 0 0 0-1.1.7c1.4 3.7 2.5 7.6 4.1 11.2 3.9 9 10.3 16.3 16.6 23.8 1.8 2.1 3.3 4.6 5.4 6.3 5 3.9 9.4 8.7 15.1 11.8.7.4 1.3 1.2 2 1.7a23.169 23.169 0 0 0 11.7 5.8 313.949 313.949 0 0 1-53.8-61.3zm5.3-23.5c.8 1.3 1.1 1.9 1.5 2.5 2.4 3.2 5 6.4 7.4 9.6a91.691 91.691 0 0 0 32.1 27.5c5 2.6 9.8 5.2 15.5 5.9 1.5.2 1.4.3 4.1-.5-21.8-12.6-41.3-28.1-60.6-45zm62 43.3a3.509 3.509 0 0 1 .8-.5 39.724 39.724 0 0 0-2-3.5 75.686 75.686 0 0 0-9.8-11.4c-4.2-3.6-8.1-7.5-12.5-10.9-6-4.6-12.2-8.9-18.4-13.1-4.5-3-9.2-5.7-13.8-8.4a27.178 27.178 0 0 0-4.3-1.5c-1.4-.4-2.9-.8-4.3-1.2-.1.2-.2.5-.3.7 4.1 3.1 8.2 6.2 12.3 9.2 5 3.6 10.2 7 15.1 10.7 6 4.4 11.8 8.9 17.7 13.5 5.1 3.9 10.1 7.9 15 11.9 1.6 1.3 3 3 4.5 4.5zM73 277.7c3.2-1 6.5-2 9.7-2.9 11.8-3.4 23.7-6.8 35.5-10.2 3.3-.9 6.4-2.6 9.7-3.1 7.8-1.1 15.6-3.3 23.6-2.9.1 0 .1-.4.4-1-4.3-.4-8.6-.8-12.8-1.1a51.158 51.158 0 0 0-5.6.3 129.887 129.887 0 0 0-29.5 6c-7.4 2.4-14.9 4.5-22 7.9a38.808 38.808 0 0 0-9 7zm16-97.3C66.3 169.1 46.1 154 26.6 138a12.453 12.453 0 0 0 2 3.6c3.1 3.6 6.3 7.2 9.5 10.7 2.6 2.8 5.2 5.5 8 8a59.785 59.785 0 0 0 7.9 6.4 108.982 108.982 0 0 0 10.6 5.8c2.2 1.1 4.8 1.8 6.8 3.2 5.4 3.7 11.6 3.6 17.6 4.7zm63.8-112c-14.6 19.8-32.7 36-50.9 52.2 24.4-10.2 41-28 50.9-52.2zM4.5 227.7c16.5 18.7 33.8 35.3 53.6 50-6.7-12.3-44.1-47.5-53.6-50zm157.6-87.2c-.2-.2-.3-.5-.5-.7-2.4 1-4.8 2.2-7.3 3.1-9.7 3.3-18.6 8.4-27.1 14-8.9 5.9-17.3 12.5-25.9 18.8a15.388 15.388 0 0 0-2.5 2.6 10.207 10.207 0 0 0 4.3-1.2c3.7-2.1 7.5-4.1 11.1-6.3 10.4-6.4 21.4-11.8 31.4-18.8 3.6-2.5 7.4-4.7 11-7.2 1.9-1.4 3.6-2.9 5.5-4.3zM76.9 278.3c0 .1.1.3.1.4 5.9-.6 12-.7 17.8-1.9 9.6-2 19.1-4.6 28.6-7 3.2-.8 6.2-2 9.3-3 5.4-1.8 10.9-3.7 16.3-5.6a8.975 8.975 0 0 0 1.8-1 55.174 55.174 0 0 0-6 .1c-13 1.4-25.4 5.2-37.9 8.6-6.4 1.8-12.8 3.9-19.1 5.8-3.6 1.2-7.2 2.5-10.9 3.6zm77.3-56.3c-7.7-2.3-29.7 1.5-44.4 7.7A73.909 73.909 0 0 0 83.6 248c22.1-12.6 45.4-21.7 70.6-26zm6.4-37.5c-7.7 0-56.2 22.1-63.1 29a31.532 31.532 0 0 0 6-1.7c8.1-3.1 16-6.7 24.2-9.4 12.1-4 22.7-10.6 32.9-17.9zm-5.3-83.2c-3.8 1.5-7.7 3.1-11.5 4.6-6.7 2.6-11.9 7.6-17.6 11.6-3.7 2.6-6.7 6-10 9.1-4.8 4.6-9.6 9.3-13.5 14.8-1.2 1.8-2.3 3.7-3.4 5.6 9.4-7.8 18.7-15.5 27.4-23.8 8.9-8.2 19.9-13.5 28.6-21.9zM89.8 246.6a4.179 4.179 0 0 0 .4 1c.9-.3 1.8-.5 2.7-.8 2.5-.9 5-1.8 7.5-2.6 4.9-1.5 10-2.5 14.8-4.3 10.1-3.6 20.1-7.5 30-11.4a69.308 69.308 0 0 0 7.6-4.1 192.567 192.567 0 0 0-63 22.2zm13.9-97.1a20.871 20.871 0 0 0 9.1-3c3.1-1.8 6-3.7 9-5.5 4-2.5 8.2-4.7 11.8-7.5a136.216 136.216 0 0 0 12.6-11.5 40.637 40.637 0 0 0 8.5-13.6c-15.5 15.5-33.1 28.5-51 41.1zm-18.1-3.4c-2.5-1.6-5-3.2-7.6-4.7-3.6-2-7.3-3.9-10.9-5.9-3.5-2-6.8-4.2-10.2-6.4-7.5-4.9-14.9-9.8-22.3-14.8a58.448 58.448 0 0 1-4.8-3.9c-.2.2-.4.5-.6.7 2.6 2.7 5.1 5.5 7.8 8.1 3.1 3 6.3 6 9.7 8.7a114.463 114.463 0 0 0 10.8 7.4c4.4 2.6 9.2 4.5 13.8 6.7 4.7 2.2 9 4.2 14.3 4.1zm48-107.6c-.3-.3-.7-.6-1-.9-3.7 3.1-7.6 6.1-11.1 9.4a70.326 70.326 0 0 0-6.6 7.7c-1.9 2.5-3.7 5.1-5.3 7.7-2.3 3.8-4.5 7.8-6.7 11.7a87.634 87.634 0 0 0-7.1 17.1c6.3-9.4 12.8-18 18.3-27.2 5.6-9.1 13.4-16.7 19.5-25.5zM157 189c-.5.3-1.1.5-1.5.8a78.522 78.522 0 0 1-15.6 9.1c-5.4 2.4-10.9 4.5-16.4 6.7l-12.3 4.8c-4.2 1.6-8.3 3.3-13.1 5.2 24-.2 42.8-10.3 58.9-26.6zm-134.1 4c-.3.2-.5.4-.8.6 1.1 1.7 2.1 3.4 3.3 5 3.7 4.8 7.9 9.2 11.1 14.3 3.9 6.2 9.3 10.9 13.8 16.4a101.815 101.815 0 0 0 9.8 9.9c1.6 1.4 2.7 3.6 5.8 4-9.8-12.7-18.7-25.5-29.4-37-4.1-4.6-9-8.8-13.6-13.2zM147.1 72l-.6-.6a52.858 52.858 0 0 0-6.7 4.6c-3.1 2.8-5.6 6.1-8.7 8.9-8.5 7.6-16.4 15.6-22.8 25.1-1.4 2.1-3.2 4-5.1 6.4 8.4-4.7 40.5-37 43.9-44.4zM31 108c-.2.3-.4.5-.6.8l5.4 4.5c9 7.4 19.4 12.6 29 19 6.7 4.6 14 8.4 21.1 12.4 1.4.8 2.9 1.4 4.4 2.1a5.736 5.736 0 0 1 .4-.7c-1.8-1.6-3.4-3.2-5.3-4.7a181 181 0 0 0-26.1-17.2c-6.8-3.7-13.3-8.1-20-12.1-2.6-1.4-5.5-2.6-8.3-4.1zm129.5 74.1c-.2 0-.5-.3-.9-.2-7 1.5-14.1 2.5-20.9 4.6a83.973 83.973 0 0 0-18.2 8c-8.9 5.2-17.7 10.6-26.1 16.7-.9.7-1.7 1.6-2.6 2.4 11.3-5.7 21.7-12.7 33.4-17.2 12-4.6 23.7-9.6 35.3-14.3zm-62.8-61.7c1.2-1 1.9-1.4 2.4-1.9a101.635 101.635 0 0 0 6.5-8.2 112.008 112.008 0 0 1 15.7-18.7c5.8-5.6 11.4-11.3 17.1-17l3.6-3.3c1-1 2-2 3.6-3.5a60.614 60.614 0 0 0-20.9 15.3c-4.8 5.3-9.4 10.8-14.4 16a68.949 68.949 0 0 0-12.6 18.2c-.3.7-.5 1.5-1 3.1zM60.3 283.1c.2-.3.5-.6.7-.9-4.7-3.9-9.5-7.8-14.2-11.7-4.7-4-9.5-7.9-14-12-4.7-4.2-9.2-8.5-13.7-12.9-4.3-4.2-8.3-8.6-12.5-12.9l-.6.6c14.5 20.5 32.2 37.5 54.3 49.8zm42.2-135.6c15.8-8.9 50.1-37.2 52.1-43-8.9 7.1-18.9 12.3-27.2 20.1-8.1 7.8-17.3 14.6-24.9 22.9zm-67.7-39.7c6.5 4 12.9 8 19.3 11.9 6.5 4 13.3 7.6 19.7 11.8 6.2 4.1 11.9 8.8 18.3 13.5-9-15.3-46.9-36.8-57.3-37.2zm123.7 37.6c-6.4 3.7-11.9 7.6-17.5 11.3-5.6 3.6-11.5 6.8-17.2 10.3-5.7 3.4-12 5.8-17.3 9.9 17.7-3.7 47.2-21.4 52-31.5zM59.1 274.8a138.647 138.647 0 0 0-18.2-25.9c-6.3-7-20.6-16.4-26.6-17.5 17.2 12.4 30.8 28.1 44.8 43.4zM35.4 53.2c-.1.2-.3.3-.4.5.4.4.6 1 1.1 1.3 5.7 4.7 11.3 9.6 17.2 14 8.8 6.5 17.9 12.6 26.9 18.8a42.3 42.3 0 0 0 4.7 2.5 1.794 1.794 0 0 0 .5-.7l-1.1-1.1c-3.9-3.4-7.6-6.9-11.7-10.1-3.7-2.9-7.8-5.1-11.5-7.9a187.742 187.742 0 0 0-22.7-15.3c-1-.6-2-1.3-3-2zm126.1 85.4c0-.2-.1-.4-.1-.6a9.7 9.7 0 0 0-1.7.1 77.3 77.3 0 0 0-23.2 8.6c-4.6 2.5-9.2 5.2-13.7 7.9a59.521 59.521 0 0 0-7.1 4.9c-3.6 2.9-7.1 5.9-10.6 9-1.3 1.2-2.4 2.7-3.6 4a92.116 92.116 0 0 0 13.9-8.5c4.9-3.7 10.1-7 15.1-10.6 8.6-6 18.2-9.5 27.7-13.6 1-.4 2.2-.8 3.3-1.2zM26.9 194.2c1.5 1.5 2.5 2.6 3.6 3.6 6.1 6.2 12.3 12.2 17.6 19.3 6 8.1 12.2 16.1 18.3 24 2.4 3.1 4.8 6 7.2 9-9-21.3-37.2-51.9-46.7-55.9zM84.4 92.5c-16.5-11.7-33.6-22.3-49-35.4a94.092 94.092 0 0 0 8.3 9.5c3.4 3.3 7.3 6.1 10.9 9.3a74.786 74.786 0 0 0 13.5 10.2 71.779 71.779 0 0 0 16.3 6.4zm5.8 22.6a4.348 4.348 0 0 1 .7-.4 20.136 20.136 0 0 0-2.2-2.9c-2.8-2.9-5.4-6-8.6-8.5-6.3-5-12.8-9.7-19.5-14.2a131.077 131.077 0 0 0-13.2-7.4 21.112 21.112 0 0 0-10.3-2.6c19 10.7 37.1 21.7 53.1 36zm-6 60.3c-3.7-2.8-7.3-5.7-11.1-8.5-6.3-4.6-12.7-9.1-18.9-13.8a152.3 152.3 0 0 0-18.5-12.3c-.6-.3-1.1-.6-1.7-.9-.5-.2-1-.2-2.3-.5 16.5 14.6 33.6 26.6 52.5 36zM93 66.9c.3.1.5.1.8.2a40.43 40.43 0 0 0 1.8-5.6 213.2 213.2 0 0 1 7.8-29.2c1.5-4.3 2.5-8.9 3.7-13.3a2.024 2.024 0 0 0-1.3.7c-5.6 6.7-8 14.7-10.1 22.9a94.925 94.925 0 0 0-2 13c-.5 3.8-.5 7.5-.7 11.3zm6 22.8l.9.6C112 77 122.8 62.8 130.1 45.6c-1 .9-1.6 1.4-2.2 2-5 6.2-9.9 12.3-14 19.2-3 5.2-6.8 9.9-10.1 14.9-1.7 2.7-3.2 5.4-4.8 8zm.7 3.8c.2 0 .5.1.7 0a12.227 12.227 0 0 0 1.9-1.2 67.328 67.328 0 0 0 14.1-13.6c6.6-8.7 11-18.5 15.4-28.4a11.794 11.794 0 0 0 .6-2.7c-5.6 7.7-8.9 16.5-15.1 23.7-6.2 7.3-11.8 14.8-17.6 22.2zm46.1 171.2c-.2-.3-.3-.5-.5-.8-21 7.2-42.1 14.4-64.5 16.2 17.4 1.7 33.7-2.9 49.8-8.5 5.2-1.8 10.1-4.6 15.2-6.9zm.1-34.5c-16.6 5.4-32.4 12.9-49.5 16.8-1.5.3-2.9 1.2-5.1 2.2 17.3-1.1 44.1-10.4 54.6-19zM31.2 172.1c15.7 13.8 31.9 26.7 50.6 37.7-5.4-6.6-41.9-33.7-50.6-37.7zm3.2-121.8C48.9 60.2 63 69.7 77.5 79.5c-6.3-9.8-28.4-23.9-43.1-29.2zm73.3-27.5L94.2 69.9c5.8-8.7 12.5-31.9 13.5-47.1zM97.5 68.5c.2.1.4.3.6.4a59.253 59.253 0 0 0 3.6-6.5c3.9-9.4 7.6-18.9 8.8-29.1.4-3.5.8-7 0-10.5a5.678 5.678 0 0 0-.7 2.2c-.7 4.5-1.4 8.9-2.1 13.4C106.5 46 103 52.7 101 60a69.121 69.121 0 0 1-3.5 8.5zM25.6 106c.9 1.4 1.6 2.4 2.2 3.4.2-.1.4-.3.6-.4-.8-1 0-2.9-2.8-3z" transform="rotate(-59 127.353 72.419)"/></symbol><symbol id="right-arrow" viewBox="0 0 492.004 492.004"><path d="M382.678 226.804L163.73 7.86C158.666 2.792 151.906 0 144.698 0s-13.968 2.792-19.032 7.86l-16.124 16.12c-10.492 10.504-10.492 27.576 0 38.064L293.398 245.9l-184.06 184.06c-5.064 5.068-7.86 11.824-7.86 19.028 0 7.212 2.796 13.968 7.86 19.04l16.124 16.116c5.068 5.068 11.824 7.86 19.032 7.86s13.968-2.792 19.032-7.86L382.678 265c5.076-5.084 7.864-11.872 7.848-19.088.016-7.244-2.772-14.028-7.848-19.108z"/></symbol><symbol id="whatsapp" viewBox="0 0 90 90"><path d="M90 43.841c0 24.213-19.779 43.841-44.182 43.841a44.256 44.256 0 0 1-21.357-5.455L0 90l7.975-23.522a43.38 43.38 0 0 1-6.34-22.637C1.635 19.628 21.416 0 45.818 0 70.223 0 90 19.628 90 43.841zM45.818 6.982c-20.484 0-37.146 16.535-37.146 36.859 0 8.065 2.629 15.534 7.076 21.61L11.107 79.14l14.275-4.537A37.122 37.122 0 0 0 45.819 80.7c20.481 0 37.146-16.533 37.146-36.857S66.301 6.982 45.818 6.982zm22.311 46.956c-.273-.447-.994-.717-2.076-1.254-1.084-.537-6.41-3.138-7.4-3.495-.993-.358-1.717-.538-2.438.537-.721 1.076-2.797 3.495-3.43 4.212-.632.719-1.263.809-2.347.271-1.082-.537-4.571-1.673-8.708-5.333-3.219-2.848-5.393-6.364-6.025-7.441-.631-1.075-.066-1.656.475-2.191.488-.482 1.084-1.255 1.625-1.882.543-.628.723-1.075 1.082-1.793.363-.717.182-1.344-.09-1.883-.27-.537-2.438-5.825-3.34-7.977-.902-2.15-1.803-1.792-2.436-1.792-.631 0-1.354-.09-2.076-.09s-1.896.269-2.889 1.344c-.992 1.076-3.789 3.676-3.789 8.963 0 5.288 3.879 10.397 4.422 11.113.541.716 7.49 11.92 18.5 16.223C58.2 65.771 58.2 64.336 60.186 64.156c1.984-.179 6.406-2.599 7.312-5.107.9-2.512.9-4.663.631-5.111z"/></symbol></svg>